<?xml version="1.0" encoding="utf-8"?>
<!-- Uploaded to: SVG Repo, www.svgrepo.com, Generator: SVG Repo Mixer Tools -->
<svg fill="#fff" width="800px" height="800px" viewBox="-8 0 32 32" version="1.1" xmlns="http://www.w3.org/2000/svg">
<title>volume</title>
<path d="M13.2 25.46c-0.16 0-0.28-0.040-0.4-0.12l-7.56-4.32h-2.6c-1.44 0-2.64-1.16-2.64-2.6v-4.8c0-1.44 1.2-2.64 2.64-2.64h2.6l7.52-4.32c0.12-0.080 0.28-0.12 0.4-0.12 1.44 0 2.64 1.2 2.64 2.64v13.6c0.040 1.48-1.16 2.68-2.6 2.68zM2.64 12.66c-0.52 0-0.96 0.44-0.96 0.96v4.8c0 0.52 0.44 0.96 0.96 0.96h2.88c0.16 0 0.28 0.040 0.4 0.12l7.48 4.28c0.44-0.080 0.76-0.48 0.76-0.92v-13.64c0-0.48-0.32-0.84-0.76-0.92l-7.48 4.28c-0.12 0.080-0.28 0.12-0.4 0.12l-2.88-0.040z"></path>
</svg>