<?xml version="1.0" encoding="utf-8"?>
<!-- Uploaded to: SVG Repo, www.svgrepo.com, Generator: SVG Repo Mixer Tools -->
<svg fill="#fff" width="800px" height="800px" viewBox="-8 0 32 32" version="1.1" xmlns="http://www.w3.org/2000/svg">
<title>volume-off</title>
<path d="M13.96 7.641l0.84-1.4c0.24-0.44 0.12-0.96-0.32-1.24-0.44-0.24-0.96-0.12-1.24 0.32l-1.84 3.080-6.16 3.52h-2.6c-1.44 0-2.64 1.2-2.64 2.64v4.76c0 1.44 1.2 2.64 2.64 2.64h0.64l-2.28 3.8c-0.24 0.44-0.12 0.96 0.32 1.24 0.16 0.080 0.32 0.12 0.44 0.12 0.32 0 0.6-0.16 0.76-0.44l2.8-4.64 7.36 4.24c0.12 0.080 0.28 0.12 0.4 0.12 1.44 0 2.64-1.2 2.64-2.64v-13.6c0.080-1.2-0.72-2.2-1.76-2.52zM2.6 20.281c-0.52 0-0.96-0.44-0.96-0.96v-4.76c0-0.52 0.44-0.96 0.96-0.96h2.88c0.16 0 0.28-0.040 0.4-0.12l3.76-2.16-5.36 8.96h-1.68zM14.12 23.761c0 0.48-0.32 0.84-0.76 0.92l-7.16-4.080 6.6-11.080 0.56-0.32c0.44 0.080 0.76 0.48 0.76 0.92v13.64z"></path>
</svg>